<svg width="20" height="20" viewBox="0 0 20 20" fill="none" xmlns="http://www.w3.org/2000/svg">
<path d="M15.0857 7.88922L10.2543 12.6367C10.2315 12.6571 10.2058 12.6745 10.1776 12.6871C10.165 12.6972 10.1513 12.7062 10.1369 12.7134C10.0506 12.7488 9.95475 12.7488 9.86847 12.7134C9.85409 12.7062 9.84031 12.6972 9.82773 12.6871C9.80377 12.6733 9.7822 12.6565 9.76303 12.6367L4.91966 7.88922C4.78606 7.74903 4.78785 7.52794 4.92326 7.38955C5.05926 7.25115 5.28034 7.24516 5.42293 7.37637L10.0026 11.8651L14.5823 7.37637C14.6494 7.30567 14.7423 7.26553 14.84 7.26493C14.9376 7.26433 15.0311 7.30267 15.0994 7.37217C15.1677 7.44227 15.2048 7.53633 15.2018 7.63399C15.1994 7.73105 15.1576 7.82332 15.0857 7.88922Z" fill="#333029"/>
</svg>
