<svg width="128" height="72" viewBox="0 0 128 72" fill="none" xmlns="http://www.w3.org/2000/svg">
<path d="M127.998 15.4183L127.982 13.8306L100.96 14.043C100.96 16.95 99.9654 20.1982 98.071 23.301C97.471 24.3017 96.7766 25.2744 95.9933 26.236C95.4933 26.8398 94.9544 27.438 94.3711 28.025C93.7156 28.6847 93.0489 29.2717 92.3489 29.8418V27.779C92.3489 12.4669 79.9601 0 64.7438 0H63.2382C48.022 0 35.6331 12.4668 35.6331 27.779V29.8418C34.9387 29.2716 34.2664 28.6846 33.6109 28.025C33.0275 27.438 32.4886 26.8398 31.9887 26.236C31.2054 25.2744 30.5109 24.3017 29.911 23.301C28.0221 20.1926 27.0222 16.9446 27.0222 14.043L0.000170374 13.8306V15.4183C-0.0276068 19.6559 3.34464 23.1053 7.55012 23.1332L13.0556 23.1779L0.555686 27.1583L1.02234 28.6733C2.04456 31.9381 5.0445 34.0234 8.27789 34.0234C9.03344 34.0234 9.81118 33.9116 10.5668 33.6656L15.8278 31.9885L5.14462 39.6587L6.06684 40.9613C7.5613 43.052 9.89458 44.1535 12.2668 44.1535C13.789 44.1535 15.3391 43.6951 16.678 42.7391L24.2556 37.2883L15.8057 48.7936L16.9835 49.6658C18.2335 50.5938 19.6834 51.041 21.1224 51.041C23.2723 51.041 25.389 50.0515 26.7556 48.1787L30.5834 42.9851L34.0945 43.5889C34.789 43.7007 35.4723 43.7734 36.1556 43.8461C38.9723 59.8179 52.8495 72 69.5221 72H90.8112C91.65 72 92.3444 71.3012 92.3444 70.4571L92.3611 43.7687C92.8722 43.7127 93.3833 43.668 93.8944 43.5842L97.4056 42.9804L101.233 48.1739C102.6 50.0468 104.717 51.0363 106.867 51.0363C108.305 51.0363 109.755 50.5946 111.005 49.661L112.183 48.7889L103.733 37.2836L111.311 42.7343C112.65 43.6959 114.2 44.1487 115.722 44.1487C118.1 44.1487 120.428 43.0474 121.922 40.9565L122.844 39.6539L112.161 31.9837L117.422 33.6609C118.178 33.9069 118.955 34.0187 119.711 34.0187C122.939 34.0187 125.939 31.9279 126.967 28.6686L127.433 27.1535L114.933 23.1732L120.439 23.1284C124.655 23.1005 128.028 19.6511 128 15.4192L127.998 15.4183ZM78.0206 36.5281V36.6566H50.9431V36.6119C44.3986 36.2541 39.2098 30.8145 39.2098 24.1339C39.2098 23.4015 39.2821 22.6748 39.4098 21.9704C39.5932 20.8802 39.9209 19.8404 40.3765 18.862C42.3542 14.5964 46.6487 11.6223 51.6431 11.6223C58.0431 11.6223 63.3208 16.486 64.0041 22.7418C64.6875 16.486 69.9652 11.6223 76.3651 11.6223C81.3595 11.6223 85.6539 14.5964 87.6317 18.8788C88.0873 19.8403 88.4151 20.8801 88.5984 21.9704C88.7262 22.6692 88.7984 23.3848 88.7984 24.1339C88.7873 30.4735 84.0927 35.695 78.0206 36.5281Z" fill="#333029"/>
<path d="M60.8872 30.5744L63.9983 35.9245L67.1093 30.5744L63.9983 27.6171L60.8872 30.5744Z" fill="#333029"/>
<path d="M56.2878 25.0902C56.2878 30.7421 47.8711 30.7421 47.8711 25.0902C47.8711 19.4438 56.2878 19.4438 56.2878 25.0902Z" fill="#333029"/>
<path d="M80.1268 25.0902C80.1268 30.7421 71.7102 30.7421 71.7102 25.0902C71.7102 19.4438 80.1268 19.4438 80.1268 25.0902Z" fill="#333029"/>
</svg>
