<svg width="58" height="32" viewBox="0 0 58 32" fill="none" xmlns="http://www.w3.org/2000/svg">
<path d="M57.9993 6.85259L57.9918 6.14693L45.7474 6.24135C45.7474 7.53335 45.2968 8.97698 44.4384 10.356C44.1665 10.8007 43.8519 11.2331 43.497 11.6605C43.2704 11.9288 43.0262 12.1947 42.7619 12.4555C42.4649 12.7487 42.1628 13.0096 41.8456 13.263V12.3462C41.8456 5.54084 36.2319 0 29.337 0H28.6548C21.76 0 16.1462 5.54078 16.1462 12.3462V13.263C15.8316 13.0096 15.527 12.7487 15.2299 12.4555C14.9656 12.1947 14.7214 11.9288 14.4949 11.6605C14.1399 11.2331 13.8252 10.8007 13.5534 10.356C12.6975 8.9745 12.2444 7.53093 12.2444 6.24135L7.72007e-05 6.14693V6.85259C-0.0125093 8.73595 1.51554 10.269 3.42115 10.2814L5.91584 10.3013L0.251795 12.0703L0.463249 12.7437C0.926439 14.1947 2.28579 15.1215 3.75092 15.1215C4.09328 15.1215 4.44569 15.0718 4.78808 14.9625L7.17199 14.2171L2.33116 17.6261L2.74904 18.205C3.42621 19.1342 4.48348 19.6238 5.5584 19.6238C6.24815 19.6238 6.95052 19.42 7.5572 18.9951L10.9908 16.5726L7.16196 21.6861L7.69564 22.0737C8.26204 22.4861 8.91904 22.6849 9.57108 22.6849C10.5453 22.6849 11.5044 22.2451 12.1236 21.4128L13.8581 19.1045L15.4491 19.3728C15.7637 19.4225 16.0734 19.4548 16.383 19.4871C17.6593 26.5857 23.9474 32 31.5022 32H41.1488C41.5289 32 41.8436 31.6894 41.8436 31.3142L41.8511 19.4527C42.0827 19.4279 42.3143 19.408 42.5459 19.3707L44.1369 19.1024L45.8713 21.4106C46.4906 22.243 47.4497 22.6828 48.4239 22.6828C49.0759 22.6828 49.7329 22.4865 50.2993 22.0716L50.833 21.684L47.0041 16.5705L50.4378 18.993C51.0445 19.4204 51.7468 19.6217 52.4366 19.6217C53.514 19.6217 54.5688 19.1322 55.2459 18.2029L55.6638 17.624L50.823 14.215L53.2069 14.9604C53.5493 15.0697 53.9017 15.1194 54.244 15.1194C55.7066 15.1194 57.066 14.1902 57.5317 12.7416L57.7432 12.0682L52.0791 10.2992L54.5738 10.2793C56.4845 10.2669 58.0125 8.73384 57.9999 6.85296L57.9993 6.85259ZM35.3531 16.2347V16.2918H23.0836V16.272C20.1181 16.1129 17.767 13.6954 17.767 10.7262C17.767 10.4007 17.7997 10.0777 17.8576 9.7646C17.9407 9.28009 18.0892 8.81793 18.2956 8.38311C19.1918 6.48729 21.1377 5.16547 23.4008 5.16547C26.3008 5.16547 28.6922 7.3271 29.0019 10.1074C29.3115 7.3271 31.703 5.16547 34.6029 5.16547C36.866 5.16547 38.8119 6.48729 39.7081 8.39056C39.9146 8.81792 40.0631 9.28004 40.1461 9.7646C40.204 10.0752 40.2368 10.3932 40.2368 10.7262C40.2317 13.5438 38.1045 15.8644 35.3531 16.2347Z" fill="#333029"/>
<path d="M27.5895 13.5886L28.9992 15.9665L30.4089 13.5886L28.9992 12.2742L27.5895 13.5886Z" fill="#333029"/>
<path d="M25.5054 11.1512C25.5054 13.6632 21.6916 13.6632 21.6916 11.1512C21.6916 8.64168 25.5054 8.64168 25.5054 11.1512Z" fill="#333029"/>
<path d="M36.3075 11.1512C36.3075 13.6632 32.4937 13.6632 32.4937 11.1512C32.4937 8.64168 36.3075 8.64168 36.3075 11.1512Z" fill="#333029"/>
</svg>
